<?xml version="1.0" encoding="UTF-8"?>
<svg width="40px" height="40px" viewBox="0 0 40 40" version="1.1" xmlns="http://www.w3.org/2000/svg"
     xmlns:xlink="http://www.w3.org/1999/xlink">
    <g id="Plugin-Icon" stroke="none" stroke-width="1" fill="none" fill-rule="evenodd">
        <g id="docusaurus-official" transform="translate(4.000000, 6.000000)" fill-rule="nonzero">
            <polygon id="Path" fill="#FFFFFF"
                     points="15.7538462 5.70586879 29.5384615 5.70586879 29.5384615 11.285356 15.7538462 11.285356"/>
            <g id="Group" fill="#3ECC5F">
                <path d="M3.28205128,23.9212534 C2.06802051,23.9212534 1.01037949,23.2604124 0.442584615,22.2802278 C0.162789744,22.7633457 0,23.3227714 0,23.9212534 C0,25.7339303 1.46937436,27.2033047 3.28205128,27.2033047 L6.56410256,27.2033047 L6.56410256,23.9212534 L3.28205128,23.9212534 Z"
                      id="Path"/>
                <path d="M18.048,6.58808417 L29.5384615,5.86997135 L29.5384615,4.22894571 C29.5384615,2.41626879 28.0689231,0.946894431 26.2564103,0.946894431 L11.4871795,0.946894431 L11.0769231,0.236330328 C10.9920855,0.0900446863 10.8357729,1.16601885e-15 10.6666667,1.16601885e-15 C10.4975605,1.16601885e-15 10.3412479,0.0900446863 10.2564103,0.236330328 L9.84615385,0.946894431 L9.43589744,0.236330328 C9.35105983,0.0900446863 9.19474723,1.16601885e-15 9.02564103,1.16601885e-15 C8.85653482,1.16601885e-15 8.70022222,0.0900446863 8.61538462,0.236330328 L8.20512821,0.946894431 L7.79487179,0.236330328 C7.71003419,0.0900446863 7.55372159,1.16601885e-15 7.38461538,1.16601885e-15 C7.21550918,1.16601885e-15 7.05919658,0.0900446863 6.97435897,0.236330328 L6.56410256,0.946894431 C6.56049231,0.946894431 6.55704615,0.947386738 6.5534359,0.947386738 L5.87372308,0.268002123 C5.7539132,0.148712511 5.57965832,0.102225514 5.41635056,0.145986175 C5.25304281,0.189746837 5.12538076,0.317136818 5.08127179,0.480350841 L4.85677949,1.31793033 L4.00459487,1.08949956 C3.8411619,1.04607576 3.66697123,1.09295947 3.54741397,1.21255054 C3.42785672,1.33214161 3.38102229,1.50634555 3.42449231,1.66976623 L3.6542359,2.52195084 L2.81682051,2.74627905 C2.65351257,2.79031461 2.52601735,2.91799205 2.48221507,3.08136272 C2.43841279,3.2447334 2.48493392,3.41906739 2.60430769,3.53889443 L3.28205128,4.21860725 C3.28205128,4.2218893 3.28172308,4.22549956 3.28172308,4.22910982 L2.57115897,4.63936623 C2.42487333,4.72420383 2.33482865,4.88051643 2.33482865,5.04962264 C2.33482865,5.21872884 2.42487333,5.37504145 2.57115897,5.45987905 L3.28205128,5.86997135 L2.57148718,6.28022776 C2.42520154,6.36506537 2.33515685,6.52137797 2.33515685,6.69048417 C2.33515685,6.85959038 2.42520154,7.01590298 2.57148718,7.10074058 L3.28205128,7.51099699 L2.57148718,7.92125341 C2.42520154,8.00609101 2.33515685,8.16240361 2.33515685,8.33150982 C2.33515685,8.50061602 2.42520154,8.65692862 2.57148718,8.74176623 L3.28205128,9.15202264 L2.57148718,9.56227905 C2.42520154,9.64711665 2.33515685,9.80342925 2.33515685,9.97253546 C2.33515685,10.1416417 2.42520154,10.2979543 2.57148718,10.3827919 L3.28205128,10.7930483 L2.57148718,11.2033047 C2.42520154,11.2881423 2.33515685,11.4444549 2.33515685,11.6135611 C2.33515685,11.7826673 2.42520154,11.9389799 2.57148718,12.0238175 L3.28205128,12.4340739 L2.57148718,12.8443303 C2.42520154,12.9291679 2.33515685,13.0854805 2.33515685,13.2545867 C2.33515685,13.4236929 2.42520154,13.5800055 2.57148718,13.6648431 L3.28205128,14.0750996 L2.57148718,14.485356 C2.42520154,14.5701936 2.33515685,14.7265062 2.33515685,14.8956124 C2.33515685,15.0647186 2.42520154,15.2210312 2.57148718,15.3058688 L3.28205128,15.7161252 L2.57148718,16.1263816 C2.42520154,16.2112192 2.33515685,16.3675318 2.33515685,16.536638 C2.33515685,16.7057442 2.42520154,16.8620568 2.57148718,16.9468944 L3.28205128,17.3571508 L2.57148718,17.7674073 C2.42520154,17.8522449 2.33515685,18.0085575 2.33515685,18.1776637 C2.33515685,18.3467699 2.42520154,18.5030825 2.57148718,18.5879201 L3.28205128,18.9981765 L2.57148718,19.4084329 C2.42520154,19.4932705 2.33515685,19.6495831 2.33515685,19.8186893 C2.33515685,19.9877955 2.42520154,20.1441081 2.57148718,20.2289457 L3.28205128,20.6392021 L2.57148718,21.0494585 C2.42520154,21.1342961 2.33515685,21.2906087 2.33515685,21.4597149 C2.33515685,21.6288211 2.42520154,21.7851338 2.57148718,21.8699714 L3.28205128,22.2802278 L2.57148718,22.6904842 C2.42520154,22.7753218 2.33515685,22.9316344 2.33515685,23.1007406 C2.33515685,23.2698468 2.42520154,23.4261594 2.57148718,23.510997 L3.28205128,23.9212534 C3.28205128,25.7339303 4.75142564,27.2033047 6.56410256,27.2033047 L26.2564103,27.2033047 C28.0689231,27.2033047 29.5384615,25.7339303 29.5384615,23.9212534 L29.5384615,10.7930483 L18.048,10.0749355 C17.1273846,10.0173355 16.4102564,9.25376623 16.4102564,8.33150982 C16.4102564,7.40925341 17.1273846,6.64568417 18.048,6.58808417"
                      id="Path"/>
                <polygon id="Path"
                         points="22.974359 27.2033047 27.8974359 27.2033047 27.8974359 20.6392021 22.974359 20.6392021"/>
            </g>
            <path d="M31.1794872,23.1007406 C31.1433846,23.1007406 31.1092513,23.1068124 31.0744615,23.1112431 L31.0554256,23.037397 C31.3517949,22.9136637 31.560041,22.6215611 31.560041,22.2803919 C31.560041,21.8272351 31.1926849,21.459879 30.7395282,21.459879 C30.5603339,21.4605229 30.3863604,21.5202831 30.2445949,21.6298893 L30.1896205,21.5747508 C30.2925128,21.4375611 30.3537231,21.2691919 30.3537231,21.0845765 C30.3534943,20.6948445 30.0791427,20.3590484 29.6972818,20.2811168 C29.3154209,20.2031851 28.9314284,20.4046239 28.7785026,20.7630996 L28.7054769,20.7442278 C28.7099077,20.7114073 28.7159795,20.6753047 28.7159795,20.6392021 C28.7159795,20.1860454 28.3486234,19.8186893 27.8954667,19.8186893 C27.4423099,19.8186893 27.0749538,20.1860454 27.0749538,20.6392021 C27.0749538,20.6753047 27.0810256,20.709438 27.0854564,20.7442278 L27.0124308,20.7630996 C26.8595049,20.4046239 26.4755124,20.2031851 26.0936515,20.2811168 C25.7117906,20.3590484 25.4374391,20.6948445 25.4372103,21.0845765 C25.4372103,21.2691919 25.5002256,21.437397 25.6013128,21.5747508 C24.9693176,22.1917096 24.6137126,23.0380472 24.6153787,23.9212534 C24.6153787,25.7339303 26.084759,27.2033047 27.8974359,27.2033047 C29.4301538,27.2033047 30.7134359,26.1530483 31.0744615,24.7312637 C31.1072821,24.7356944 31.1433846,24.7417662 31.1794872,24.7417662 C31.6326439,24.7417662 32,24.3744101 32,23.9212534 C32,23.4680967 31.6326439,23.1007406 31.1794872,23.1007406"
                  id="Path" fill="#44D860"/>
            <polygon id="Path" fill="#3ECC5F"
                     points="24.6153846 17.3571508 29.5384615 17.3571508 29.5384615 14.0750996 24.6153846 14.0750996"/>
            <g id="A-link" transform="translate(27.895631, 13.887456)" fill="#44D860">
                <path d="M3.28385641,2.23892551 C3.51043477,2.23892551 3.69411282,2.05524746 3.69411282,1.8286691 C3.69411282,1.60209075 3.51043477,1.41841269 3.28385641,1.41841269 C3.26744615,1.41841269 3.24873846,1.42169475 3.23134359,1.42366398 L3.22182564,1.3867409 C3.40223291,1.31141885 3.50442809,1.11926074 3.46602607,0.927569642 C3.42762405,0.735878542 3.25929473,0.597915381 3.06379487,0.597899874 C2.974177,0.598098679 2.88715168,0.627991993 2.81632821,0.682905002 L2.78875897,0.655335771 C2.84248955,0.584884633 2.87165603,0.498768559 2.87179487,0.41016654 C2.87173284,0.215240522 2.7345197,0.0472712993 2.54352578,0.00831649652 C2.35253185,-0.0306383063 2.16049763,0.0701781745 2.08410256,0.24951013 C1.94346667,0.210125515 1.79593846,0.187643463 1.64102564,0.187643463 C0.734851282,0.187643463 0,0.922494745 0,1.8286691 C0,2.73484346 0.734851282,3.46969475 1.64102564,3.46969475 C1.79429744,3.46969475 1.94182564,3.44704859 2.08410256,3.40782808 C2.16049763,3.58716003 2.35253185,3.68797652 2.54352578,3.64902171 C2.7345197,3.61006691 2.87173284,3.44209769 2.87179487,3.24717167 C2.87179487,3.15478192 2.84028718,3.07043321 2.78875897,3.00200244 C2.79811282,2.9929768 2.80730256,2.98559218 2.81632821,2.97443321 C2.88721097,3.02923633 2.97419774,3.0591164 3.06379487,3.05943834 C3.25929473,3.05942283 3.42762405,2.92145967 3.46602607,2.72976857 C3.50442809,2.53807747 3.40223291,2.34591936 3.22182564,2.27059731 L3.23134359,2.23367423 C3.24857436,2.23580757 3.2641641,2.23892551 3.28385641,2.23892551"
                      id="A"/>
            </g>
            <path d="M9.84615385,6.28022776 C9.61957549,6.28022776 9.43589744,6.09654971 9.43589744,5.86997135 C9.43499343,5.19061108 8.88448848,4.64010613 8.20512821,4.63920212 C7.52576793,4.64010613 6.97526298,5.19061108 6.97435897,5.86997135 C6.97435897,6.09654971 6.79068092,6.28022776 6.56410256,6.28022776 C6.33752421,6.28022776 6.15384615,6.09654971 6.15384615,5.86997135 C6.15384615,4.73881238 7.07396923,3.8186893 8.20512821,3.8186893 C9.33628718,3.8186893 10.2564103,4.73881238 10.2564103,5.86997135 C10.2564103,6.09654971 10.0727322,6.28022776 9.84615385,6.28022776"
                  id="Path" fill="#000000"/>
            <path d="M16.4102564,27.2033047 L26.2564103,27.2033047 C28.0690872,27.2033047 29.5384615,25.7339303 29.5384615,23.9212534 L29.5384615,12.4340739 L19.6923077,12.4340739 C17.8796308,12.4340739 16.4102564,13.9034483 16.4102564,15.7161252 L16.4102564,27.2033047 Z"
                  id="Path" fill="#FFFF50"/>
            <g id="B-link" transform="translate(18.704410, 17.193048)" fill="#000000">
                <path d="M8.37579487,1 L0.164102564,1 C0.0734712205,1 0,0.776142375 0,0.5 C0,0.223857625 0.0734712205,0 0.164102564,0 L8.37579487,0 C8.46642622,0 8.53989744,0.223857625 8.53989744,0.5 C8.53989744,0.776142375 8.46642622,1 8.37579487,1"
                      id="B"/>
            </g>
            <g id="B-link" transform="translate(18.704410, 20.475100)" fill="#000000">
                <path d="M8.37579487,1 L0.164102564,1 C0.0734712205,1 0,0.776142375 0,0.5 C0,0.223857625 0.0734712205,0 0.164102564,0 L8.37579487,0 C8.46642622,0 8.53989744,0.223857625 8.53989744,0.5 C8.53989744,0.776142375 8.46642622,1 8.37579487,1"
                      id="B"/>
            </g>
            <g id="B-link" transform="translate(18.704410, 23.757151)" fill="#000000">
                <path d="M8.37579487,1 L0.164102564,1 C0.0734712205,1 0,0.776142375 0,0.5 C0,0.223857625 0.0734712205,0 0.164102564,0 L8.37579487,0 C8.46642622,0 8.53989744,0.223857625 8.53989744,0.5 C8.53989744,0.776142375 8.46642622,1 8.37579487,1"
                      id="B"/>
            </g>
            <g id="B-link" transform="translate(18.704410, 15.582546)" fill="#000000">
                <path d="M8.37579487,1 L0.164102564,1 C0.0734712205,1 0,0.776142375 0,0.5 C0,0.223857625 0.0734712205,0 0.164102564,0 L8.37579487,0 C8.46642622,0 8.53989744,0.223857625 8.53989744,0.5 C8.53989744,0.776142375 8.46642622,1 8.37579487,1"
                      id="B"/>
            </g>
            <g id="B-link" transform="translate(18.704410, 18.834074)" fill="#000000">
                <path d="M8.37579487,1 L0.164102564,1 C0.0734712205,1 0,0.776142375 0,0.5 C0,0.223857625 0.0734712205,0 0.164102564,0 L8.37579487,0 C8.46642622,0 8.53989744,0.223857625 8.53989744,0.5 C8.53989744,0.776142375 8.46642622,1 8.37579487,1"
                      id="B"/>
            </g>
            <g id="B-link" transform="translate(18.704410, 22.116125)" fill="#000000">
                <path d="M8.37579487,1 L0.164102564,1 C0.0734712205,1 0,0.776142375 0,0.5 C0,0.223857625 0.0734712205,0 0.164102564,0 L8.37579487,0 C8.46642622,0 8.53989744,0.223857625 8.53989744,0.5 C8.53989744,0.776142375 8.46642622,1 8.37579487,1"
                      id="B"/>
            </g>
            <path d="M29.5384615,7.28125341 C29.5364923,7.28125341 29.5348513,7.28026879 29.5328821,7.28043289 C29.0241641,7.29766366 28.7858872,7.80490469 28.5741949,8.25241238 C28.3533128,8.72010469 28.1824821,9.02418674 27.9025231,9.01499699 C27.5907282,9.00383802 27.4151385,8.65364315 27.2275692,8.28309956 C27.0119385,7.85758161 26.7657846,7.37479187 26.2490256,7.39284315 C25.7491692,7.40990982 25.5084308,7.85134571 25.2960821,8.2407611 C25.0701128,8.65561238 24.9163487,8.90783802 24.6199795,8.89618674 C24.3037538,8.88469956 24.1358769,8.59998161 23.9412513,8.27046366 C23.7246359,7.90353033 23.4738872,7.49097648 22.9671385,7.5050893 C22.4758154,7.52199187 22.2344205,7.89647392 22.0214154,8.22714058 C21.7961026,8.57667905 21.6382359,8.78968417 21.3379282,8.77688417 C21.0141538,8.76539699 20.8469333,8.53073033 20.6536205,8.25553033 C20.4363487,7.94816623 20.1915077,7.60026879 19.6862359,7.61553033 C19.2057436,7.63194058 18.9641846,7.93881238 18.7515077,8.20925341 C18.5493333,8.46590982 18.3914667,8.66906879 18.0573538,8.65626879 C17.9667225,8.65300606 17.8906063,8.72383232 17.8872352,8.81446366 C17.8840809,8.90509501 17.9549071,8.98121119 18.0455385,8.98447392 C18.5406359,9.00088417 18.7913846,8.6890893 19.0091487,8.41224828 C19.2022974,8.16675084 19.3690256,7.95489443 19.6972308,7.94373546 C20.0132923,7.93027905 20.161641,8.12670982 20.385641,8.44342776 C20.5984821,8.74439187 20.8402051,9.0857252 21.3259487,9.10312007 C21.835159,9.12018674 22.0801641,8.73963289 22.2971077,8.40289443 C22.4910769,8.10193033 22.6584615,7.84215597 22.9781333,7.8311611 C23.2723692,7.82016623 23.4326974,8.05269956 23.6583385,8.43505853 C23.8711795,8.79559187 24.1122462,9.20404315 24.608,9.22209443 C25.1208205,9.23981751 25.3684513,8.79214571 25.5844103,8.39583802 C25.7714872,8.05319187 25.9477333,7.72958161 26.2605128,7.71875084 C26.5547487,7.71185853 26.7081846,7.98049443 26.9333333,8.42931494 C27.1453538,8.84826879 27.3857641,9.32285341 27.8892308,9.34106879 L27.9171282,9.3415611 C28.4199385,9.3415611 28.6585436,8.83694571 28.8697436,8.39075084 C29.0568205,7.99690469 29.233559,7.62275084 29.5371487,7.6074893 L29.5371487,7.27928417 L29.5384615,7.28125341 Z"
                  id="Path" fill="#000000"/>
            <polygon id="Path" fill="#3ECC5F"
                     points="13.1282051 27.2033047 19.6923077 27.2033047 19.6923077 20.6392021 13.1282051 20.6392021"/>
            <path d="M22.974359,23.1007406 C22.9382564,23.1007406 22.9041231,23.1068124 22.8693333,23.1112431 L22.8502974,23.037397 C23.1466667,22.9136637 23.3549128,22.6215611 23.3549128,22.2803919 C23.3549128,21.8272351 22.9875567,21.459879 22.5344,21.459879 C22.3552057,21.4605229 22.1812322,21.5202831 22.0394667,21.6298893 L21.9844923,21.5747508 C22.0873846,21.4375611 22.1485949,21.2691919 22.1485949,21.0845765 C22.1483661,20.6948445 21.8740145,20.3590484 21.4921536,20.2811168 C21.1102927,20.2031851 20.7263002,20.4046239 20.5733744,20.7630996 L20.5003487,20.7442278 C20.5047795,20.7114073 20.5108513,20.6753047 20.5108513,20.6392021 C20.5108513,20.1860454 20.1434952,19.8186893 19.6903385,19.8186893 C19.2371817,19.8186893 18.8698256,20.1860454 18.8698256,20.6392021 C18.8698256,20.6753047 18.8758974,20.709438 18.8803282,20.7442278 L18.8073026,20.7630996 C18.6543767,20.4046239 18.2703842,20.2031851 17.8885233,20.2811168 C17.5066624,20.3590484 17.2323109,20.6948445 17.2320821,21.0845765 C17.2320821,21.2691919 17.2950974,21.437397 17.3961846,21.5747508 C16.7641894,22.1917096 16.4085844,23.0380472 16.4102505,23.9212534 C16.4102505,25.7339303 17.8796308,27.2033047 19.6923077,27.2033047 C21.2250256,27.2033047 22.5083077,26.1530483 22.8693333,24.7312637 C22.9021538,24.7356944 22.9382564,24.7417662 22.974359,24.7417662 C23.4275157,24.7417662 23.7948718,24.3744101 23.7948718,23.9212534 C23.7948718,23.4680967 23.4275157,23.1007406 22.974359,23.1007406"
                  id="Path" fill="#44D860"/>
            <polygon id="Path" fill="#3ECC5F"
                     points="13.1282051 17.3571508 19.6923077 17.3571508 19.6923077 14.0750996 13.1282051 14.0750996"/>
            <g id="A-link" transform="translate(18.049477, 13.887456)" fill="#44D860">
                <path d="M3.28385641,2.23892551 C3.51043477,2.23892551 3.69411282,2.05524746 3.69411282,1.8286691 C3.69411282,1.60209075 3.51043477,1.41841269 3.28385641,1.41841269 C3.26744615,1.41841269 3.24873846,1.42169475 3.23134359,1.42366398 L3.22182564,1.3867409 C3.40223291,1.31141885 3.50442809,1.11926074 3.46602607,0.927569642 C3.42762405,0.735878542 3.25929473,0.597915381 3.06379487,0.597899874 C2.974177,0.598098679 2.88715168,0.627991993 2.81632821,0.682905002 L2.78875897,0.655335771 C2.84248955,0.584884633 2.87165603,0.498768559 2.87179487,0.41016654 C2.87173284,0.215240522 2.7345197,0.0472712993 2.54352578,0.00831649652 C2.35253185,-0.0306383063 2.16049763,0.0701781745 2.08410256,0.24951013 C1.94346667,0.210125515 1.79593846,0.187643463 1.64102564,0.187643463 C0.734851282,0.187643463 0,0.922494745 0,1.8286691 C0,2.73484346 0.734851282,3.46969475 1.64102564,3.46969475 C1.79429744,3.46969475 1.94182564,3.44704859 2.08410256,3.40782808 C2.16049763,3.58716003 2.35253185,3.68797652 2.54352578,3.64902171 C2.7345197,3.61006691 2.87173284,3.44209769 2.87179487,3.24717167 C2.87179487,3.15478192 2.84028718,3.07043321 2.78875897,3.00200244 C2.79811282,2.9929768 2.80730256,2.98559218 2.81632821,2.97443321 C2.88721097,3.02923633 2.97419774,3.0591164 3.06379487,3.05943834 C3.25929473,3.05942283 3.42762405,2.92145967 3.46602607,2.72976857 C3.50442809,2.53807747 3.40223291,2.34591936 3.22182564,2.27059731 L3.23134359,2.23367423 C3.24857436,2.23580757 3.2641641,2.23892551 3.28385641,2.23892551"
                      id="A"/>
            </g>
            <path d="M22.974359,4.02381751 C22.9468236,4.02344524 22.9193715,4.02070004 22.8923077,4.01561238 C22.8659125,4.01048003 22.8400808,4.00278548 22.8151795,3.99263802 C22.7905641,3.98279187 22.7659487,3.96966366 22.7446154,3.95489443 L22.6822564,3.90566366 C22.6658462,3.88597135 22.6461538,3.86627905 22.6330256,3.84330469 C22.6182296,3.8210093 22.6055391,3.79738622 22.5951179,3.77274058 C22.5851212,3.74780041 22.5774844,3.72197805 22.5723077,3.69561238 C22.5673846,3.66935597 22.5641026,3.64145853 22.5641026,3.6135611 C22.5641026,3.58566366 22.5673846,3.55940725 22.5723077,3.53150982 C22.5772308,3.50361238 22.5854359,3.48227905 22.5952821,3.45438161 C22.6057032,3.42973597 22.6183937,3.40611289 22.6331897,3.38381751 L22.6824205,3.32145853 C22.7021128,3.30504828 22.7234462,3.28535597 22.7447795,3.27222776 C22.7666646,3.2568013 22.7903638,3.24412495 22.8153436,3.23448417 C22.8402449,3.22433671 22.8660766,3.21664217 22.8924718,3.21150982 C22.9449846,3.20002264 22.9991385,3.20002264 23.0532923,3.21150982 C23.0795487,3.21643289 23.1058051,3.22463802 23.1304205,3.23448417 C23.1550359,3.24433033 23.1796513,3.25745853 23.2009846,3.27222776 L23.2633436,3.32145853 C23.2816686,3.34109059 23.2986635,3.36192316 23.3142154,3.38381751 C23.3290219,3.40607913 23.3416609,3.42970851 23.351959,3.45438161 C23.3618051,3.48063802 23.3683692,3.50361238 23.3749333,3.53150982 C23.3800167,3.5580214 23.3827623,3.58492816 23.3831385,3.61192007 C23.3824505,3.72062533 23.3394873,3.82479652 23.2633436,3.90238161 C23.2436513,3.91879187 23.2223179,3.93848417 23.2009846,3.95161238 C23.1790995,3.96703884 23.1554003,3.97971519 23.1304205,3.98935597 C23.1058051,3.99920212 23.0811897,4.00576623 23.0532923,4.01233033 C23.0263766,4.01838721 22.9988232,4.02114255 22.971241,4.02053546 M26.2564103,3.8186893 C26.147705,3.81800137 26.0435338,3.77503811 25.9659487,3.69889443 C25.9476238,3.67926237 25.9306288,3.6584298 25.9150769,3.63653546 C25.9002809,3.61424007 25.8875903,3.59061699 25.8771692,3.56597135 C25.8671725,3.54103118 25.8595357,3.51520882 25.854359,3.48884315 C25.8494359,3.46258674 25.8461538,3.4346893 25.8461538,3.40679187 C25.8468418,3.29808661 25.889805,3.19391542 25.9659487,3.11633033 C25.985641,3.09992007 26.0069744,3.08022776 26.0283077,3.06709956 C26.0501928,3.0516731 26.073892,3.03899675 26.0988718,3.02935597 C26.1237731,3.01920851 26.1496048,3.01151396 26.176,3.00638161 C26.2285128,2.99489443 26.2843077,2.99489443 26.3368205,3.00638161 C26.3630769,3.01130469 26.3893333,3.01950982 26.4139487,3.02935597 C26.4385641,3.03920212 26.4631795,3.05233033 26.4845128,3.06709956 L26.5468718,3.11633033 C26.6233116,3.19371956 26.6663268,3.29801679 26.6666667,3.40679187 C26.6662905,3.43378378 26.6635449,3.46069054 26.6584615,3.48720212 C26.6535385,3.51345853 26.6453333,3.53971494 26.6354872,3.56433033 C26.6245383,3.58868902 26.6119273,3.612266 26.5977436,3.63489443 C26.5821918,3.65678878 26.5651968,3.67762135 26.5468718,3.69725341 C26.5271795,3.71366366 26.5058462,3.73335597 26.4845128,3.74648417 C26.4626277,3.76191064 26.4389285,3.77458698 26.4139487,3.78422776 C26.3893333,3.79407392 26.3647179,3.80063802 26.3368205,3.80720212 C26.3099048,3.813259 26.2823514,3.81601434 26.2547692,3.81540725"
                  id="Shape" fill="#000000"/>
        </g>
    </g>
</svg>
