<?xml version="1.0" encoding="UTF-8"?>
<svg width="16px" height="16px" viewBox="0 0 16 16" version="1.1" xmlns="http://www.w3.org/2000/svg">
    <g id="Generator-Icon" stroke="none" stroke-width="1" fill="none" fill-rule="evenodd">
        <g id="docusaurus-official" transform="translate(2.000000, 3.000000)" fill-rule="nonzero">
            <polygon id="Path" fill="#FFFFFF"
                     points="6.30153846 2.28234752 11.8153846 2.28234752 11.8153846 4.51414239 6.30153846 4.51414239"/>
            <g id="Group" fill="#3ECC5F">
                <path d="M1.31282051,9.56850136 C0.827208205,9.56850136 0.404151795,9.30416495 0.177033846,8.91209111 C0.0651158974,9.10533829 0,9.32910854 0,9.56850136 C0,10.2935721 0.587749744,10.8813219 1.31282051,10.8813219 L2.62564103,10.8813219 L2.62564103,9.56850136 L1.31282051,9.56850136 Z"
                      id="Path"/>
                <path d="M7.2192,2.63523367 L11.8153846,2.34798854 L11.8153846,1.69157829 C11.8153846,0.966507516 11.2275692,0.378757772 10.5025641,0.378757772 L4.59487179,0.378757772 L4.43076923,0.0945321313 C4.39683419,0.0360178745 4.33430915,4.66407539e-16 4.26666667,4.66407539e-16 C4.19902419,4.66407539e-16 4.13649914,0.0360178745 4.1025641,0.0945321313 L3.93846154,0.378757772 L3.77435897,0.0945321313 C3.74042393,0.0360178745 3.67789889,4.66407539e-16 3.61025641,4.66407539e-16 C3.54261393,4.66407539e-16 3.48008889,0.0360178745 3.44615385,0.0945321313 L3.28205128,0.378757772 L3.11794872,0.0945321313 C3.08401368,0.0360178745 3.02148863,4.66407539e-16 2.95384615,4.66407539e-16 C2.88620367,4.66407539e-16 2.82367863,0.0360178745 2.78974359,0.0945321313 L2.62564103,0.378757772 C2.62419692,0.378757772 2.62281846,0.378954695 2.62137436,0.378954695 L2.34948923,0.107200849 C2.30156528,0.0594850043 2.23186333,0.0408902054 2.16654022,0.0583944701 C2.10121712,0.0758987347 2.0501523,0.126854727 2.03250872,0.192140336 L1.94271179,0.527172131 L1.60183795,0.435799824 C1.53646476,0.418430306 1.46678849,0.437183787 1.41896559,0.485020216 C1.37114269,0.532856646 1.35240892,0.602538218 1.36979692,0.66790649 L1.46169436,1.00878034 L1.12672821,1.09851162 C1.06140503,1.11612585 1.01040694,1.16719682 0.992886029,1.23254509 C0.975365116,1.29789336 0.99397357,1.36762696 1.04172308,1.41555777 L1.31282051,1.6874429 C1.31282051,1.68875572 1.31268923,1.69019982 1.31268923,1.69164393 L1.02846359,1.85574649 C0.969949333,1.88968153 0.933931458,1.95220657 0.933931458,2.01984905 C0.933931458,2.08749154 0.969949333,2.15001658 1.02846359,2.18395162 L1.31282051,2.34798854 L1.02859487,2.51209111 C0.970080615,2.54602615 0.934062741,2.60855119 0.934062741,2.67619367 C0.934062741,2.74383615 0.970080615,2.80636119 1.02859487,2.84029623 L1.31282051,3.0043988 L1.02859487,3.16850136 C0.970080615,3.2024364 0.934062741,3.26496145 0.934062741,3.33260393 C0.934062741,3.40024641 0.970080615,3.46277145 1.02859487,3.49670649 L1.31282051,3.66080905 L1.02859487,3.82491162 C0.970080615,3.85884666 0.934062741,3.9213717 0.934062741,3.98901418 C0.934062741,4.05665666 0.970080615,4.11918171 1.02859487,4.15311675 L1.31282051,4.31721931 L1.02859487,4.48132187 C0.970080615,4.51525692 0.934062741,4.57778196 0.934062741,4.64542444 C0.934062741,4.71306692 0.970080615,4.77559196 1.02859487,4.809527 L1.31282051,4.97362957 L1.02859487,5.13773213 C0.970080615,5.17166717 0.934062741,5.23419221 0.934062741,5.3018347 C0.934062741,5.36947718 0.970080615,5.43200222 1.02859487,5.46593726 L1.31282051,5.63003982 L1.02859487,5.79414239 C0.970080615,5.82807743 0.934062741,5.89060247 0.934062741,5.95824495 C0.934062741,6.02588743 0.970080615,6.08841248 1.02859487,6.12234752 L1.31282051,6.28645008 L1.02859487,6.45055264 C0.970080615,6.48448768 0.934062741,6.54701273 0.934062741,6.61465521 C0.934062741,6.68229769 0.970080615,6.74482273 1.02859487,6.77875777 L1.31282051,6.94286034 L1.02859487,7.1069629 C0.970080615,7.14089794 0.934062741,7.20342298 0.934062741,7.27106546 C0.934062741,7.33870795 0.970080615,7.40123299 1.02859487,7.43516803 L1.31282051,7.59927059 L1.02859487,7.76337316 C0.970080615,7.7973082 0.934062741,7.85983324 0.934062741,7.92747572 C0.934062741,7.9951182 0.970080615,8.05764324 1.02859487,8.09157829 L1.31282051,8.25568085 L1.02859487,8.41978341 C0.970080615,8.45371845 0.934062741,8.5162435 0.934062741,8.58388598 C0.934062741,8.65152846 0.970080615,8.7140535 1.02859487,8.74798854 L1.31282051,8.91209111 L1.02859487,9.07619367 C0.970080615,9.11012871 0.934062741,9.17265375 0.934062741,9.24029623 C0.934062741,9.30793871 0.970080615,9.37046376 1.02859487,9.4043988 L1.31282051,9.56850136 C1.31282051,10.2935721 1.90057026,10.8813219 2.62564103,10.8813219 L10.5025641,10.8813219 C11.2275692,10.8813219 11.8153846,10.2935721 11.8153846,9.56850136 L11.8153846,4.31721931 L7.2192,4.02997418 C6.85095385,4.00693418 6.56410256,3.70150649 6.56410256,3.33260393 C6.56410256,2.96370136 6.85095385,2.65827367 7.2192,2.63523367"
                      id="Path"/>
                <polygon id="Path"
                         points="9.18974359 10.8813219 11.1589744 10.8813219 11.1589744 8.25568085 9.18974359 8.25568085"/>
            </g>
            <path d="M12.4717949,9.24029623 C12.4573538,9.24029623 12.4437005,9.24272495 12.4297846,9.24449726 L12.4221703,9.2149588 C12.5407179,9.16546546 12.6240164,9.04862444 12.6240164,8.91215675 C12.6240164,8.73089406 12.477074,8.58395162 12.2958113,8.58395162 C12.2241336,8.58420917 12.1545442,8.60811322 12.0978379,8.65195572 L12.0758482,8.62990034 C12.1170051,8.57502444 12.1414892,8.50767675 12.1414892,8.43383059 C12.1413977,8.27793779 12.0316571,8.14361935 11.8789127,8.1124467 C11.7261684,8.08127406 11.5725714,8.16184957 11.511401,8.30523982 L11.4821908,8.29769111 C11.4839631,8.2845629 11.4863918,8.27012187 11.4863918,8.25568085 C11.4863918,8.07441816 11.3394494,7.92747572 11.1581867,7.92747572 C10.976924,7.92747572 10.8299815,8.07441816 10.8299815,8.25568085 C10.8299815,8.27012187 10.8324103,8.28377521 10.8341826,8.29769111 L10.8049723,8.30523982 C10.743802,8.16184957 10.590205,8.08127406 10.4374606,8.1124467 C10.2847163,8.14361935 10.1749756,8.27793779 10.1748841,8.43383059 C10.1748841,8.50767675 10.2000903,8.5749588 10.2405251,8.62990034 C9.98772705,8.87668383 9.84548503,9.21521888 9.8461515,9.56850136 C9.8461515,10.2935721 10.4339036,10.8813219 11.1589744,10.8813219 C11.7720615,10.8813219 12.2853744,10.4612193 12.4297846,9.89250546 C12.4429128,9.89427777 12.4573538,9.89670649 12.4717949,9.89670649 C12.6530576,9.89670649 12.8,9.74976405 12.8,9.56850136 C12.8,9.38723867 12.6530576,9.24029623 12.4717949,9.24029623"
                  id="Path" fill="#44D860"/>
            <polygon id="Path" fill="#3ECC5F"
                     points="9.84615385 6.94286034 11.8153846 6.94286034 11.8153846 5.63003982 9.84615385 5.63003982"/>
            <g id="A-link" transform="translate(11.158252, 5.554982)" fill="#44D860">
                <path d="M1.31354256,0.895570206 C1.40417391,0.895570206 1.47764513,0.822098985 1.47764513,0.731467642 C1.47764513,0.640836298 1.40417391,0.567365078 1.31354256,0.567365078 C1.30697846,0.567365078 1.29949538,0.568677898 1.29253744,0.56946559 L1.28873026,0.55469636 C1.36089316,0.524567539 1.40177124,0.447704297 1.38641043,0.371027857 C1.37104962,0.294351417 1.30371789,0.239166152 1.22551795,0.239159949 C1.1896708,0.239239471 1.15486067,0.251196797 1.12653128,0.273162001 L1.11550359,0.262134308 C1.13699582,0.233953853 1.14866241,0.199507424 1.14871795,0.164066616 C1.14869314,0.0860962089 1.09380788,0.0189085197 1.01741031,0.00332659861 C0.94101274,-0.0122553225 0.864199052,0.0280712698 0.833641026,0.099804052 C0.777386667,0.0840502059 0.718375385,0.0750573853 0.656410256,0.0750573853 C0.293940513,0.0750573853 0,0.368997898 0,0.731467642 C0,1.09393739 0.293940513,1.3878779 0.656410256,1.3878779 C0.717718974,1.3878779 0.776730256,1.37881944 0.833641026,1.36313123 C0.864199052,1.43486401 0.94101274,1.47519061 1.01741031,1.45960868 C1.09380788,1.44402676 1.14869314,1.37683907 1.14871795,1.29886867 C1.14871795,1.26191277 1.13611487,1.22817328 1.11550359,1.20080098 C1.11924513,1.19719072 1.12292103,1.19423687 1.12653128,1.18977328 C1.15488439,1.21169453 1.1896791,1.22364656 1.22551795,1.22377533 C1.30371789,1.22376913 1.37104962,1.16858387 1.38641043,1.09190743 C1.40177124,1.01523099 1.36089316,0.938367744 1.28873026,0.908238924 L1.29253744,0.893469693 C1.29942974,0.894323026 1.30566564,0.895570206 1.31354256,0.895570206"
                      id="A"/>
            </g>
            <path d="M3.93846154,2.51209111 C3.84783019,2.51209111 3.77435897,2.43861989 3.77435897,2.34798854 C3.77399737,2.07624443 3.55379539,1.85604245 3.28205128,1.85568085 C3.01030717,1.85604245 2.79010519,2.07624443 2.78974359,2.34798854 C2.78974359,2.43861989 2.71627237,2.51209111 2.62564103,2.51209111 C2.53500968,2.51209111 2.46153846,2.43861989 2.46153846,2.34798854 C2.46153846,1.89552495 2.82958769,1.52747572 3.28205128,1.52747572 C3.73451487,1.52747572 4.1025641,1.89552495 4.1025641,2.34798854 C4.1025641,2.43861989 4.02909288,2.51209111 3.93846154,2.51209111"
                  id="Path" fill="#000000"/>
            <path d="M6.56410256,10.8813219 L10.5025641,10.8813219 C11.2276349,10.8813219 11.8153846,10.2935721 11.8153846,9.56850136 L11.8153846,4.97362957 L7.87692308,4.97362957 C7.15185231,4.97362957 6.56410256,5.56137931 6.56410256,6.28645008 L6.56410256,10.8813219 Z"
                  id="Path" fill="#FFFF50"/>
            <g id="B-link" transform="translate(7.481764, 6.877219)" fill="#000000">
                <path d="M3.35031795,1 L0.0656410256,1 C0.0293884882,1 0,0.776142375 0,0.5 C0,0.223857625 0.0293884882,0 0.0656410256,0 L3.35031795,0 C3.38657049,0 3.41595897,0.223857625 3.41595897,0.5 C3.41595897,0.776142375 3.38657049,1 3.35031795,1"
                      id="B"/>
            </g>
            <g id="B-link" transform="translate(7.481764, 8.190040)" fill="#000000">
                <path d="M3.35031795,1 L0.0656410256,1 C0.0293884882,1 0,0.776142375 0,0.5 C0,0.223857625 0.0293884882,0 0.0656410256,0 L3.35031795,0 C3.38657049,0 3.41595897,0.223857625 3.41595897,0.5 C3.41595897,0.776142375 3.38657049,1 3.35031795,1"
                      id="B"/>
            </g>
            <g id="B-link" transform="translate(7.481764, 9.502860)" fill="#000000">
                <path d="M3.35031795,1 L0.0656410256,1 C0.0293884882,1 0,0.776142375 0,0.5 C0,0.223857625 0.0293884882,0 0.0656410256,0 L3.35031795,0 C3.38657049,0 3.41595897,0.223857625 3.41595897,0.5 C3.41595897,0.776142375 3.38657049,1 3.35031795,1"
                      id="B"/>
            </g>
            <g id="B-link" transform="translate(7.481764, 6.233018)" fill="#000000">
                <path d="M3.35031795,1 L0.0656410256,1 C0.0293884882,1 0,0.776142375 0,0.5 C0,0.223857625 0.0293884882,0 0.0656410256,0 L3.35031795,0 C3.38657049,0 3.41595897,0.223857625 3.41595897,0.5 C3.41595897,0.776142375 3.38657049,1 3.35031795,1"
                      id="B"/>
            </g>
            <g id="B-link" transform="translate(7.481764, 7.533630)" fill="#000000">
                <path d="M3.35031795,1 L0.0656410256,1 C0.0293884882,1 0,0.776142375 0,0.5 C0,0.223857625 0.0293884882,0 0.0656410256,0 L3.35031795,0 C3.38657049,0 3.41595897,0.223857625 3.41595897,0.5 C3.41595897,0.776142375 3.38657049,1 3.35031795,1"
                      id="B"/>
            </g>
            <g id="B-link" transform="translate(7.481764, 8.846450)" fill="#000000">
                <path d="M3.35031795,1 L0.0656410256,1 C0.0293884882,1 0,0.776142375 0,0.5 C0,0.223857625 0.0293884882,0 0.0656410256,0 L3.35031795,0 C3.38657049,0 3.41595897,0.223857625 3.41595897,0.5 C3.41595897,0.776142375 3.38657049,1 3.35031795,1"
                      id="B"/>
            </g>
            <path d="M11.8153846,2.91250136 C11.8145969,2.91250136 11.8139405,2.91210752 11.8131528,2.91217316 C11.6096656,2.91906546 11.5143549,3.12196187 11.4296779,3.30096495 C11.3413251,3.48804187 11.2729928,3.6096747 11.1610092,3.6059988 C11.0362913,3.60153521 10.9660554,3.46145726 10.8910277,3.31323982 C10.8047754,3.14303264 10.7063138,2.94991675 10.4996103,2.95713726 C10.2996677,2.96396393 10.2033723,3.14053829 10.1184328,3.29630444 C10.0280451,3.46224495 9.96653949,3.56313521 9.84799179,3.5584747 C9.72150154,3.55387982 9.65435077,3.43999264 9.57650051,3.30818546 C9.48985436,3.16141213 9.38955487,2.99639059 9.18685538,3.00203572 C8.99032615,3.00879675 8.89376821,3.15858957 8.80856615,3.29085623 C8.71844103,3.43067162 8.65529436,3.51587367 8.53517128,3.51075367 C8.40566154,3.5061588 8.33877333,3.41229213 8.26144821,3.30221213 C8.17453949,3.17926649 8.07660308,3.04010752 7.87449436,3.04621213 C7.68229744,3.05277623 7.58567385,3.17552495 7.50060308,3.28370136 C7.41973333,3.38636393 7.35658667,3.46762752 7.22294154,3.46250752 C7.186689,3.46120242 7.15624253,3.48953293 7.1548941,3.52578546 C7.15363234,3.562038 7.18196285,3.59248448 7.21821538,3.59378957 C7.41625436,3.60035367 7.51655385,3.47563572 7.60365949,3.36489931 C7.68091897,3.26670034 7.74761026,3.18195777 7.87889231,3.17749418 C8.00531692,3.17211162 8.06465641,3.25068393 8.15425641,3.37737111 C8.23939282,3.49775675 8.33608205,3.63429008 8.53037949,3.64124803 C8.73406359,3.6480747 8.83206564,3.49585316 8.91884308,3.36115777 C8.99643077,3.24077213 9.06338462,3.13686239 9.19125333,3.13246444 C9.30894769,3.12806649 9.37307897,3.22107982 9.46333538,3.37402341 C9.54847179,3.51823675 9.64489846,3.68161726 9.8432,3.68883777 C10.0483282,3.695927 10.1473805,3.51685829 10.2337641,3.35833521 C10.3085949,3.22127675 10.3790933,3.09183264 10.5042051,3.08750034 C10.6218995,3.08474341 10.6832738,3.19219777 10.7733333,3.37172598 C10.8581415,3.53930752 10.9543056,3.72914136 11.1556923,3.73642752 L11.1668513,3.73662444 C11.3679754,3.73662444 11.4634174,3.53477829 11.5478974,3.35630034 C11.6227282,3.19876187 11.6934236,3.04910034 11.8148595,3.04299572 L11.8148595,2.91171367 L11.8153846,2.91250136 Z"
                  id="Path" fill="#000000"/>
            <polygon id="Path" fill="#3ECC5F"
                     points="5.25128205 10.8813219 7.87692308 10.8813219 7.87692308 8.25568085 5.25128205 8.25568085"/>
            <path d="M9.18974359,9.24029623 C9.17530256,9.24029623 9.16164923,9.24272495 9.14773333,9.24449726 L9.14011897,9.2149588 C9.25866667,9.16546546 9.34196513,9.04862444 9.34196513,8.91215675 C9.34196513,8.73089406 9.19502269,8.58395162 9.01376,8.58395162 C8.9420823,8.58420917 8.87249288,8.60811322 8.81578667,8.65195572 L8.79379692,8.62990034 C8.83495385,8.57502444 8.85943795,8.50767675 8.85943795,8.43383059 C8.85934642,8.27793779 8.7496058,8.14361935 8.59686143,8.1124467 C8.44411707,8.08127406 8.29052008,8.16184957 8.22934974,8.30523982 L8.20013949,8.29769111 C8.20191179,8.2845629 8.20434051,8.27012187 8.20434051,8.25568085 C8.20434051,8.07441816 8.05739807,7.92747572 7.87613538,7.92747572 C7.6948727,7.92747572 7.54793026,8.07441816 7.54793026,8.25568085 C7.54793026,8.27012187 7.55035897,8.28377521 7.55213128,8.29769111 L7.52292103,8.30523982 C7.46175069,8.16184957 7.3081537,8.08127406 7.15540933,8.1124467 C7.00266497,8.14361935 6.89292435,8.27793779 6.89283282,8.43383059 C6.89283282,8.50767675 6.91803897,8.5749588 6.95847385,8.62990034 C6.70567576,8.87668383 6.56343375,9.21521888 6.56410022,9.56850136 C6.56410022,10.2935721 7.15185231,10.8813219 7.87692308,10.8813219 C8.49001026,10.8813219 9.00332308,10.4612193 9.14773333,9.89250546 C9.16086154,9.89427777 9.17530256,9.89670649 9.18974359,9.89670649 C9.37100628,9.89670649 9.51794872,9.74976405 9.51794872,9.56850136 C9.51794872,9.38723867 9.37100628,9.24029623 9.18974359,9.24029623"
                  id="Path" fill="#44D860"/>
            <polygon id="Path" fill="#3ECC5F"
                     points="5.25128205 6.94286034 7.87692308 6.94286034 7.87692308 5.63003982 5.25128205 5.63003982"/>
            <g id="A-link" transform="translate(7.219791, 5.554982)" fill="#44D860">
                <path d="M1.31354256,0.895570206 C1.40417391,0.895570206 1.47764513,0.822098985 1.47764513,0.731467642 C1.47764513,0.640836298 1.40417391,0.567365078 1.31354256,0.567365078 C1.30697846,0.567365078 1.29949538,0.568677898 1.29253744,0.56946559 L1.28873026,0.55469636 C1.36089316,0.524567539 1.40177124,0.447704297 1.38641043,0.371027857 C1.37104962,0.294351417 1.30371789,0.239166152 1.22551795,0.239159949 C1.1896708,0.239239471 1.15486067,0.251196797 1.12653128,0.273162001 L1.11550359,0.262134308 C1.13699582,0.233953853 1.14866241,0.199507424 1.14871795,0.164066616 C1.14869314,0.0860962089 1.09380788,0.0189085197 1.01741031,0.00332659861 C0.94101274,-0.0122553225 0.864199052,0.0280712698 0.833641026,0.099804052 C0.777386667,0.0840502059 0.718375385,0.0750573853 0.656410256,0.0750573853 C0.293940513,0.0750573853 0,0.368997898 0,0.731467642 C0,1.09393739 0.293940513,1.3878779 0.656410256,1.3878779 C0.717718974,1.3878779 0.776730256,1.37881944 0.833641026,1.36313123 C0.864199052,1.43486401 0.94101274,1.47519061 1.01741031,1.45960868 C1.09380788,1.44402676 1.14869314,1.37683907 1.14871795,1.29886867 C1.14871795,1.26191277 1.13611487,1.22817328 1.11550359,1.20080098 C1.11924513,1.19719072 1.12292103,1.19423687 1.12653128,1.18977328 C1.15488439,1.21169453 1.1896791,1.22364656 1.22551795,1.22377533 C1.30371789,1.22376913 1.37104962,1.16858387 1.38641043,1.09190743 C1.40177124,1.01523099 1.36089316,0.938367744 1.28873026,0.908238924 L1.29253744,0.893469693 C1.29942974,0.894323026 1.30566564,0.895570206 1.31354256,0.895570206"
                      id="A"/>
            </g>
            <path d="M9.18974359,2.19910649 C9.17872944,2.19874368 9.16774862,2.19606817 9.15692308,2.19110969 C9.146365,2.18610765 9.13603233,2.17860847 9.12607179,2.16871865 C9.11622564,2.15912248 9.10637949,2.1463276 9.09784615,2.13193336 L9.07290256,2.08395255 C9.06633846,2.06476023 9.05846154,2.04556791 9.05321026,2.02317686 C9.04729184,2.00144756 9.04221562,1.97842426 9.03804718,1.95440437 C9.03404849,1.93009742 9.03099376,1.90493069 9.02892308,1.87923444 C9.02695385,1.85364467 9.02564103,1.82645555 9.02564103,1.79926643 C9.02564103,1.7720773 9.02695385,1.74648754 9.02892308,1.71929841 C9.03089231,1.69210929 9.03417436,1.67131761 9.03811282,1.64412848 C9.04228126,1.62010859 9.04735748,1.5970853 9.0532759,1.57535599 L9.07296821,1.5145803 C9.08084513,1.4985867 9.08937846,1.47939438 9.09791179,1.46659949 C9.10666583,1.45156471 9.11614553,1.43921021 9.12613744,1.42981421 C9.13609797,1.41992439 9.14643064,1.4124252 9.15698872,1.40742316 C9.17799385,1.39622764 9.19965538,1.39622764 9.22131692,1.40742316 C9.23181949,1.41222124 9.24232205,1.42021805 9.25216821,1.42981421 C9.26201436,1.43941037 9.27186051,1.45220525 9.28039385,1.46659949 L9.30533744,1.5145803 C9.31266742,1.5337139 9.31946542,1.55401754 9.32568615,1.57535599 C9.33160876,1.59705239 9.33666435,1.62008183 9.34078359,1.64412848 C9.34472205,1.66971825 9.34734769,1.69210929 9.34997333,1.71929841 C9.35200669,1.74513687 9.35310492,1.77136047 9.35325538,1.79766707 C9.35298021,1.90361231 9.33579491,2.00513861 9.30533744,2.08075383 C9.29746051,2.09674743 9.28892718,2.11593976 9.28039385,2.12873464 C9.27163981,2.14376943 9.26216011,2.15612392 9.25216821,2.16551992 C9.24232205,2.17511609 9.2324759,2.18151353 9.22131692,2.18791097 C9.21055062,2.19381406 9.19952927,2.19649944 9.18849641,2.19590777 M10.5025641,1.99918646 C10.459082,1.99851599 10.4174135,1.95664356 10.3863795,1.88243316 C10.3790495,1.86329956 10.3722515,1.84299592 10.3660308,1.82165747 C10.3601124,1.79992816 10.3550361,1.77690487 10.3508677,1.75288498 C10.346869,1.72857803 10.3438143,1.7034113 10.3417436,1.67771505 C10.3397744,1.65212528 10.3384615,1.62493616 10.3384615,1.59774703 C10.3387367,1.49180179 10.355922,1.39027549 10.3863795,1.31466027 C10.3942564,1.29866667 10.4027897,1.27947434 10.4113231,1.26667946 C10.4200771,1.25164467 10.4295568,1.23929018 10.4395487,1.22989418 C10.4495092,1.22000436 10.4598419,1.21250517 10.4704,1.20750313 C10.4914051,1.19630761 10.5137231,1.19630761 10.5347282,1.20750313 C10.5452308,1.21230121 10.5557333,1.22029801 10.5655795,1.22989418 C10.5754256,1.23949034 10.5852718,1.25228522 10.5938051,1.26667946 L10.6187487,1.31466027 C10.6493246,1.3900846 10.6665307,1.49173374 10.6666667,1.59774703 C10.6665162,1.62405363 10.665418,1.65027723 10.6633846,1.67611569 C10.6614154,1.70170545 10.6581333,1.72729521 10.6541949,1.75128562 C10.6498153,1.77502585 10.6447709,1.79800421 10.6390974,1.82005811 C10.6328767,1.84139656 10.6260787,1.8617002 10.6187487,1.8808338 C10.6108718,1.8968274 10.6023385,1.91601972 10.5938051,1.92881461 C10.5850511,1.94384939 10.5755714,1.95620389 10.5655795,1.96559989 C10.5557333,1.97519605 10.5458872,1.9815935 10.5347282,1.98799094 C10.5239619,1.99389403 10.5129406,1.99657941 10.5019077,1.99598774"
                  id="Shape" fill="#000000"/>
        </g>
    </g>
</svg>
